<?xml version="1.0" standalone="no"?>
<svg viewBox="0 0 200 200" xmlns="http://www.w3.org/2000/svg">
  <path fill="#FFFF" d="M39.7,-51.3C55.3,-43.3,74.4,-36.8,74.5,-26.6C74.5,-16.3,55.4,-2.3,49.1,15.5C42.7,33.2,49,54.6,42.9,66.3C36.8,77.9,18.4,79.7,0.9,78.5C-16.7,77.3,-33.4,73.1,-49.2,64.7C-65.1,56.2,-80.1,43.6,-85.5,27.6C-90.9,11.7,-86.7,-7.6,-77.9,-22.5C-69.2,-37.5,-56,-48.2,-42.3,-56.8C-28.5,-65.4,-14.3,-71.9,-1.1,-70.3C12,-68.8,24.1,-59.3,39.7,-51.3Z" transform="translate(100 100)" />
</svg>
